<svg width="504" height="458" viewBox="0 0 504 458" fill="none" xmlns="http://www.w3.org/2000/svg">
<g clip-path="url(#clip0)">
<path d="M476.282 264.586C475.721 265.691 475.135 266.777 474.531 267.856C451.354 309.191 397.441 334.861 306.517 321.275C254.892 313.194 232.906 342.835 211.617 373.197C211.252 373.721 210.889 374.245 210.519 374.769C188.224 406.608 166.152 438.536 110.962 427.923C52.4532 418.452 16.3443 369.819 10.7568 317.897C10.6887 317.266 10.6273 316.628 10.5716 315.997C7.43257 282.333 17.1336 247.476 41.8825 221.162C56.832 205.27 78.0718 196.829 99.9961 197.095C106.597 197.22 113.196 196.72 119.706 195.598C121.143 195.339 122.537 195.055 123.894 194.733C151.825 188.199 164.696 168.772 172.59 145.065C172.775 144.503 172.96 143.941 173.139 143.373C191.265 86.8355 182.883 7.4811 281.423 19.1548C369.602 25.8092 434.314 75.8627 466.057 133.612C466.372 134.193 466.686 134.774 466.994 135.355C475.719 151.378 481.945 168.699 485.446 186.69C485.644 187.7 485.823 188.71 485.989 189.72C490.479 216.54 487.537 242.609 476.282 264.586Z" fill="#249B93" fill-opacity="0.08"/>
<path d="M458.614 180.44C449.652 191.091 439.554 200.732 428.499 209.192C385.436 242.217 330.893 260.127 277.084 263.884C249.431 265.828 221.641 263.94 194.505 258.275C166.897 252.491 140.564 242.304 115.062 230.405C90.2587 218.829 66.1893 205.776 41.5518 193.877C41.8141 193.099 42.076 192.321 42.3294 191.535C69.1947 204.465 95.5097 218.715 122.689 231.034C148.297 242.645 174.803 252.115 202.525 257.182C230.184 262.204 258.412 263.31 286.379 260.467C340.04 255.068 394.627 235.271 435.881 199.853C443.627 193.203 450.789 185.902 457.286 178.028C457.732 178.832 458.177 179.636 458.614 180.44Z" fill="white"/>
<path d="M272.172 0.821808C272.11 0.821808 272.047 0.823805 271.984 0.827805C205.768 4.97627 153.898 60.247 153.898 126.658C153.898 193.069 205.768 248.34 271.984 252.487C272.38 252.514 272.777 252.458 273.15 252.324C273.523 252.19 273.864 251.98 274.153 251.708C274.44 251.44 274.669 251.116 274.825 250.756C274.981 250.395 275.061 250.006 275.059 249.614V3.7016C275.057 2.93712 274.752 2.20454 274.211 1.66464C273.67 1.12474 272.937 0.821617 272.172 0.821777L272.172 0.821808Z" fill="#BFD7EA"/>
<path d="M373.413 210.686C372.431 210.686 371.49 210.296 370.795 209.603L285.178 123.986C284.833 123.643 284.56 123.236 284.374 122.787C284.189 122.338 284.093 121.857 284.095 121.372V3.70166C284.093 3.19673 284.195 2.69686 284.396 2.23349C284.596 1.77011 284.891 1.35326 285.26 1.00915C285.631 0.660777 286.069 0.392169 286.547 0.219966C287.026 0.0477633 287.535 -0.0243622 288.042 0.00803686C354.69 4.18332 406.898 59.8146 406.898 126.658C406.9 157.02 396.015 186.377 376.219 209.399C375.886 209.785 375.477 210.098 375.018 210.319C374.559 210.54 374.059 210.664 373.55 210.684C373.505 210.686 373.459 210.686 373.413 210.686Z" fill="#FFCDD2"/>
<path d="M287.806 253.315C286.861 253.314 285.952 252.954 285.262 252.308C284.892 251.964 284.597 251.547 284.396 251.083C284.195 250.619 284.093 250.118 284.095 249.613V143.444C284.095 142.713 284.312 141.998 284.718 141.39C285.124 140.782 285.701 140.309 286.377 140.029C287.052 139.749 287.795 139.676 288.512 139.819C289.229 139.961 289.888 140.313 290.405 140.83L365.116 215.541C365.471 215.897 365.75 216.32 365.936 216.787C366.122 217.253 366.211 217.753 366.198 218.255C366.185 218.757 366.07 219.251 365.861 219.707C365.651 220.163 365.35 220.572 364.977 220.909C343.707 240.059 316.598 251.474 288.036 253.308C287.96 253.313 287.883 253.315 287.806 253.315Z" fill="#FFAC00" fill-opacity="0.31"/>
<path d="M485.523 255.671C473.537 276.927 456.614 295.676 437.236 310.537C394.173 343.562 339.63 361.472 285.821 365.229C258.167 367.173 230.378 365.286 203.242 359.62C175.634 353.836 149.301 343.649 123.799 331.75C97.8337 319.632 72.6633 305.889 46.8112 293.545C20.986 281.208 -5.55634 270.689 -33.3652 263.805C-31.3295 263.447 -29.3548 263.054 -27.433 262.608C-25.6157 263.08 -23.8042 263.569 -21.9986 264.076C32.3782 279.278 80.3689 309.236 131.426 332.379C157.033 343.99 183.54 353.461 211.262 358.528C238.921 363.549 267.149 364.655 295.116 361.813C348.777 356.414 403.364 336.616 444.618 301.198C460.947 287.24 474.555 270.383 484.754 251.478C485.034 252.875 485.288 254.273 485.523 255.671Z" fill="white"/>
<path d="M-54.3247 442.304C-0.751568 457.278 46.6189 486.581 96.8372 509.567C96.3215 510.292 95.8062 511.018 95.2819 511.743C94.0064 511.157 92.7398 510.572 91.4728 509.978C65.5077 497.86 40.3372 484.117 14.4851 471.773C-11.8909 459.174 -39.0095 448.472 -67.4647 441.596C-106.798 432.122 -147.429 429.232 -187.707 433.043C-187.804 432.169 -187.891 431.287 -187.97 430.413C-143.069 426.175 -97.7718 430.205 -54.3247 442.304Z" fill="white"/>
<path d="M259.883 386.188H178.813C177.645 386.188 176.524 385.723 175.698 384.897C174.871 384.071 174.407 382.95 174.407 381.781C174.407 380.613 174.871 379.492 175.698 378.666C176.524 377.84 177.645 377.375 178.813 377.375H259.883C261.052 377.375 262.172 377.84 262.999 378.666C263.825 379.492 264.289 380.613 264.289 381.781C264.289 382.95 263.825 384.071 262.999 384.897C262.172 385.723 261.052 386.188 259.883 386.188V386.188Z" fill="#CCCCCC"/>
<path d="M154.581 390.593C152.751 390.593 150.962 390.051 149.44 389.034C147.919 388.017 146.733 386.572 146.032 384.882C145.332 383.191 145.149 381.331 145.506 379.536C145.863 377.741 146.744 376.092 148.038 374.798C149.332 373.504 150.981 372.623 152.776 372.266C154.57 371.909 156.431 372.092 158.121 372.793C159.812 373.493 161.257 374.679 162.274 376.201C163.291 377.722 163.833 379.511 163.833 381.341C163.83 383.794 162.855 386.146 161.12 387.88C159.386 389.615 157.034 390.591 154.581 390.593Z" fill="#3F3D56"/>
<path d="M259.883 412.623H178.813C177.645 412.623 176.524 412.159 175.698 411.333C174.871 410.506 174.407 409.386 174.407 408.217C174.407 407.048 174.871 405.928 175.698 405.102C176.524 404.275 177.645 403.811 178.813 403.811H259.883C261.052 403.811 262.172 404.275 262.999 405.102C263.825 405.928 264.289 407.048 264.289 408.217C264.289 409.386 263.825 410.506 262.999 411.333C262.172 412.159 261.052 412.623 259.883 412.623V412.623Z" fill="#CCCCCC"/>
<path d="M154.581 417.029C152.751 417.029 150.962 416.486 149.44 415.47C147.919 414.453 146.733 413.008 146.032 411.317C145.332 409.627 145.149 407.766 145.506 405.971C145.863 404.177 146.744 402.528 148.038 401.234C149.332 399.94 150.981 399.059 152.776 398.702C154.57 398.345 156.431 398.528 158.122 399.228C159.812 399.929 161.257 401.114 162.274 402.636C163.291 404.158 163.833 405.947 163.833 407.776C163.83 410.23 162.855 412.581 161.12 414.316C159.386 416.051 157.034 417.026 154.581 417.029Z" fill="#3F3D56"/>
<path d="M259.883 439.059H178.813C177.645 439.059 176.524 438.595 175.698 437.769C174.871 436.942 174.407 435.822 174.407 434.653C174.407 433.485 174.871 432.364 175.698 431.538C176.524 430.711 177.645 430.247 178.813 430.247H259.883C261.052 430.247 262.172 430.711 262.999 431.538C263.825 432.364 264.289 433.485 264.289 434.653C264.289 435.822 263.825 436.942 262.999 437.769C262.172 438.595 261.052 439.059 259.883 439.059V439.059Z" fill="#CCCCCC"/>
<path d="M154.581 443.465C152.751 443.465 150.962 442.922 149.44 441.906C147.919 440.889 146.733 439.444 146.032 437.753C145.332 436.063 145.149 434.202 145.506 432.407C145.863 430.613 146.744 428.964 148.038 427.67C149.332 426.376 150.981 425.495 152.776 425.138C154.57 424.781 156.431 424.964 158.121 425.664C159.812 426.365 161.257 427.55 162.274 429.072C163.291 430.594 163.833 432.383 163.833 434.213C163.83 436.666 162.855 439.017 161.12 440.752C159.386 442.487 157.034 443.462 154.581 443.465Z" fill="#3F3D56"/>
<path d="M283.175 408.098H316.661C316.894 408.098 317.118 408.005 317.284 407.84C317.449 407.675 317.542 407.451 317.542 407.217V200.206C317.542 199.972 317.449 199.748 317.284 199.583C317.118 199.418 316.894 199.325 316.661 199.325C316.427 199.325 316.203 199.418 316.038 199.583C315.872 199.748 315.779 199.972 315.779 200.206V406.336H283.175C283.059 406.335 282.944 406.358 282.837 406.402C282.73 406.446 282.632 406.511 282.55 406.593C282.468 406.675 282.403 406.772 282.358 406.879C282.314 406.986 282.291 407.101 282.291 407.217C282.291 407.333 282.314 407.448 282.358 407.555C282.403 407.662 282.468 407.759 282.55 407.841C282.632 407.923 282.73 407.988 282.837 408.032C282.944 408.076 283.059 408.099 283.175 408.098V408.098Z" fill="#3F3D56"/>
<path d="M426.661 64.9057C424.422 65.0861 422.18 64.5985 420.218 63.5045C418.256 62.4105 416.663 60.7593 415.639 58.7597C414.616 56.76 414.208 54.5018 414.468 52.2706C414.728 50.0393 415.644 47.9353 417.099 46.2245C418.555 44.5136 420.485 43.2729 422.646 42.6592C424.807 42.0454 427.101 42.0863 429.239 42.7765C431.377 43.4667 433.262 44.7753 434.656 46.5368C436.05 48.2983 436.89 50.4336 437.07 52.6727C437.312 55.6752 436.351 58.6509 434.399 60.945C432.447 63.2391 429.664 64.6638 426.661 64.9057V64.9057ZM426.521 63.164C428.416 63.0114 430.222 62.3004 431.713 61.1209C433.203 59.9414 434.311 58.3464 434.895 56.5376C435.479 54.7288 435.513 52.7875 434.994 50.959C434.475 49.1306 433.425 47.4972 431.977 46.2655C430.53 45.0337 428.749 44.2589 426.861 44.0389C424.973 43.819 423.063 44.1639 421.371 45.0299C419.679 45.8959 418.281 47.2443 417.356 48.9044C416.43 50.5645 416.017 52.4618 416.17 54.3564C416.271 55.6144 416.619 56.8401 417.194 57.9635C417.769 59.087 418.56 60.0861 419.521 60.904C420.483 61.7219 421.595 62.3424 422.796 62.7302C423.997 63.118 425.263 63.2654 426.521 63.1641V63.164Z" fill="#CCCCCC"/>
<path d="M465.771 35.7633C469.631 35.7633 472.76 32.6341 472.76 28.774C472.76 24.9139 469.631 21.7847 465.771 21.7847C461.911 21.7847 458.781 24.9139 458.781 28.774C458.781 32.6341 461.911 35.7633 465.771 35.7633Z" fill="#CCCCCC"/>
<path d="M500.126 10.4864C502.153 10.4864 503.797 8.84266 503.797 6.81498C503.797 4.78731 502.153 3.14355 500.126 3.14355C498.098 3.14355 496.454 4.78731 496.454 6.81498C496.454 8.84266 498.098 10.4864 500.126 10.4864Z" fill="#CCCCCC"/>
<path d="M373.295 288.46C372.056 290.334 370.29 291.799 368.219 292.67C366.148 293.54 363.866 293.777 361.66 293.35C359.455 292.923 357.426 291.852 355.829 290.271C354.232 288.691 353.14 286.673 352.691 284.472C352.241 282.271 352.454 279.986 353.303 277.907C354.152 275.827 355.599 274.046 357.46 272.788C359.321 271.53 361.514 270.853 363.76 270.841C366.006 270.83 368.206 271.485 370.08 272.723V272.723C372.59 274.386 374.339 276.977 374.941 279.927C375.544 282.877 374.952 285.946 373.295 288.46V288.46ZM355.801 276.901C354.753 278.487 354.199 280.348 354.208 282.248C354.218 284.149 354.791 286.004 355.855 287.579C356.92 289.154 358.427 290.378 360.187 291.097C361.946 291.815 363.88 291.995 365.742 291.615C367.604 291.234 369.312 290.31 370.649 288.959C371.986 287.609 372.893 285.891 373.254 284.025C373.615 282.159 373.415 280.228 372.678 278.476C371.942 276.723 370.702 275.229 369.117 274.181V274.181C366.989 272.779 364.393 272.278 361.896 272.788C359.4 273.297 357.208 274.777 355.801 276.901V276.901Z" fill="#CCCCCC"/>
<path d="M386.901 330.231C390.762 330.231 393.891 327.101 393.891 323.241C393.891 319.381 390.762 316.252 386.901 316.252C383.041 316.252 379.912 319.381 379.912 323.241C379.912 327.101 383.041 330.231 386.901 330.231Z" fill="#CCCCCC"/>
<path d="M406.397 362.723C408.425 362.723 410.068 361.079 410.068 359.051C410.068 357.024 408.425 355.38 406.397 355.38C404.369 355.38 402.726 357.024 402.726 359.051C402.726 361.079 404.369 362.723 406.397 362.723Z" fill="#CCCCCC"/>
<path d="M91.2775 97.7065C90.2778 95.6948 89.8971 93.4319 90.1835 91.2039C90.47 88.9759 91.4106 86.8829 92.8865 85.1895C94.3625 83.4961 96.3075 82.2784 98.4755 81.6904C100.644 81.1024 102.937 81.1705 105.067 81.8861C107.196 82.6017 109.065 83.9326 110.438 85.7106C111.811 87.4885 112.626 89.6337 112.78 91.8748C112.933 94.1158 112.419 96.3521 111.302 98.3009C110.185 100.25 108.515 101.823 106.503 102.823V102.823C103.805 104.16 100.686 104.372 97.8321 103.413C94.9777 102.454 92.6205 100.402 91.2775 97.7065V97.7065ZM110.055 88.3753C109.209 86.6732 107.877 85.26 106.228 84.3147C104.579 83.3693 102.687 82.9342 100.791 83.0643C98.8944 83.1944 97.0793 83.8838 95.5749 85.0455C94.0705 86.2072 92.9443 87.7889 92.3388 89.5906C91.7333 91.3924 91.6757 93.3332 92.1732 95.1677C92.6708 97.0021 93.7011 98.6479 95.134 99.8968C96.5668 101.146 98.3378 101.942 100.223 102.184C102.108 102.426 104.023 102.104 105.725 101.258C108.006 100.122 109.742 98.1272 110.554 95.712C111.366 93.2969 111.186 90.6583 110.055 88.3753Z" fill="#CCCCCC"/>
<path d="M54.3653 99.0109C58.2254 99.0109 61.3546 95.8817 61.3546 92.0216C61.3546 88.1615 58.2254 85.0322 54.3653 85.0322C50.5052 85.0322 47.376 88.1615 47.376 92.0216C47.376 95.8817 50.5052 99.0109 54.3653 99.0109Z" fill="#CCCCCC"/>
<path d="M13.607 94.5865C15.6347 94.5865 17.2784 92.9428 17.2784 90.9151C17.2784 88.8874 15.6347 87.2437 13.607 87.2437C11.5793 87.2437 9.93555 88.8874 9.93555 90.9151C9.93555 92.9428 11.5793 94.5865 13.607 94.5865Z" fill="#CCCCCC"/>
<path d="M72 110.469C66.82 110.469 61.8521 112.527 58.1893 116.189C54.5265 119.852 52.4688 124.82 52.4688 130C52.4688 135.18 54.5265 140.148 58.1893 143.811C61.8521 147.473 66.82 149.531 72 149.531C77.18 149.531 82.1479 147.473 85.8107 143.811C89.4735 140.148 91.5312 135.18 91.5312 130C91.5312 124.82 89.4735 119.852 85.8107 116.189C82.1479 112.527 77.18 110.469 72 110.469V110.469Z" fill="white"/>
<path d="M72 150.703C60.5937 150.703 51.2969 141.406 51.2969 130C51.2969 118.594 60.5937 109.297 72 109.297C83.4063 109.297 92.7031 118.594 92.7031 130C92.7031 141.406 83.4063 150.703 72 150.703ZM72 111.641C61.8828 111.641 53.6406 119.883 53.6406 130C53.6406 140.117 61.8828 148.359 72 148.359C82.1172 148.359 90.3594 140.117 90.3594 130C90.3594 119.883 82.1172 111.641 72 111.641Z" fill="#CCCCCC"/>
<path d="M77.4688 127.07C77.4688 124.805 75.6328 122.969 73.3672 122.969H72.7812V122.188C72.7812 121.523 72.2734 121.016 71.6094 121.016C70.9453 121.016 70.4375 121.523 70.4375 122.188V122.969H67.7031C67.0391 122.969 66.5312 123.477 66.5312 124.141C66.5312 124.648 66.8437 125.078 67.3125 125.234V134.727C66.8437 134.883 66.5312 135.313 66.5312 135.82C66.5312 136.484 67.0391 136.992 67.7031 136.992H70.4375V137.773C70.4375 138.438 70.9453 138.945 71.6094 138.945C72.2734 138.945 72.7812 138.438 72.7812 137.773V136.992H73.3672C75.6328 137.031 77.4688 135.195 77.4688 132.93C77.4688 131.797 77 130.742 76.2188 130C77 129.258 77.4688 128.203 77.4688 127.07ZM73.3672 134.688H69.6562V131.172H73.3672C74.3438 131.172 75.125 131.953 75.125 132.93C75.125 133.906 74.3438 134.688 73.3672 134.688ZM73.3672 128.828H69.6562V125.312H73.3672C74.3438 125.312 75.125 126.094 75.125 127.07C75.125 128.047 74.3438 128.828 73.3672 128.828Z" fill="#CCCCCC"/>
<path d="M36.9839 31.9864C36.7984 31.9895 36.6174 32.0441 36.4612 32.1441C36.3049 32.2441 36.1796 32.3856 36.0991 32.5528L22.1694 54.4435C22.1465 54.4773 22.1256 54.5125 22.1069 54.5489C22.1063 54.5496 22.1056 54.5502 22.105 54.5509C22.0905 54.5802 22.0775 54.6102 22.0659 54.6407C22.0419 54.7032 22.0243 54.768 22.0132 54.8341C22.002 54.8999 21.9974 54.9666 21.9995 55.0333C21.9995 55.0339 21.9995 55.0346 21.9995 55.0352C22.0005 55.0679 22.0031 55.1005 22.0073 55.1329C22.0086 55.1394 22.0099 55.1459 22.0112 55.1524C22.0193 55.2021 22.031 55.251 22.0464 55.2989C22.0489 55.3081 22.0515 55.3172 22.0542 55.3263C22.0542 55.3269 22.0542 55.3276 22.0542 55.3282C22.0651 55.3594 22.0774 55.39 22.0913 55.42C22.0913 55.4207 22.0913 55.4213 22.0913 55.422C22.1055 55.4514 22.1212 55.48 22.1382 55.5079C22.1382 55.5086 22.1382 55.5092 22.1382 55.5099C22.1551 55.5381 22.1733 55.5655 22.1929 55.5919C22.2024 55.6038 22.2121 55.6156 22.2222 55.627C22.2335 55.6417 22.2452 55.656 22.2573 55.67C22.279 55.6946 22.3018 55.718 22.3257 55.7403C22.3263 55.741 22.327 55.7416 22.3276 55.7423C22.3764 55.7864 22.4294 55.8257 22.4858 55.8595C22.4865 55.8601 22.4871 55.8608 22.4878 55.8614C22.493 55.8641 22.4982 55.8667 22.5034 55.8692C22.5041 55.8699 22.5047 55.8705 22.5054 55.8712L36.3784 63.7989C36.5541 63.9376 36.7712 64.0133 36.9949 64.014C37.2187 64.0147 37.4363 63.9404 37.6128 63.8028L51.4741 55.881C51.4813 55.8771 51.4885 55.8732 51.4956 55.8692C51.5176 55.8564 51.5391 55.8427 51.5601 55.8282C51.5666 55.8237 51.5731 55.8192 51.5796 55.8145C51.5842 55.8107 51.5887 55.8068 51.5933 55.8028C51.614 55.7886 51.6342 55.7736 51.6538 55.7579C51.6551 55.7566 51.6564 55.7553 51.6577 55.754C51.6617 55.7508 51.6656 55.7475 51.6694 55.7442C51.6905 55.7249 51.7107 55.7047 51.73 55.6837C51.7527 55.6594 51.7742 55.634 51.7944 55.6075C51.814 55.5817 51.8322 55.555 51.8491 55.5274C51.8498 55.5268 51.8504 55.5261 51.8511 55.5255C51.8517 55.5235 51.8524 55.5216 51.853 55.5196C51.8699 55.4937 51.8855 55.4669 51.8999 55.4395C51.8999 55.4389 51.8999 55.4382 51.8999 55.4376C51.9112 55.4146 51.9216 55.3911 51.9312 55.3673C51.9338 55.3601 51.9365 55.353 51.939 55.3458C51.9417 55.338 51.9443 55.3302 51.9468 55.3224C51.9541 55.2998 51.9606 55.277 51.9663 55.254C51.967 55.2527 51.9676 55.2514 51.9683 55.2501C51.9689 55.2481 51.9696 55.2462 51.9702 55.2442C51.9775 55.2139 51.9834 55.1833 51.9878 55.1524C51.992 55.1272 51.9953 55.1018 51.9976 55.0763C51.9976 55.0737 51.9976 55.0711 51.9976 55.0685C51.9996 55.0379 52.0003 55.0073 51.9995 54.9767C51.9988 54.9571 51.9975 54.9376 51.9956 54.9181C51.9943 54.8972 51.9924 54.8763 51.9898 54.8556C51.9898 54.8549 51.9898 54.8543 51.9898 54.8536C51.9891 54.8504 51.9885 54.8471 51.9878 54.8438C51.9831 54.8156 51.9773 54.7876 51.9702 54.7599C51.9702 54.7586 51.9702 54.7573 51.9702 54.756C51.964 54.7309 51.9569 54.7062 51.9487 54.6817C51.9462 54.6745 51.9436 54.6674 51.9409 54.6602C51.9378 54.6524 51.9345 54.6446 51.9312 54.6368C51.9228 54.6144 51.9137 54.5922 51.9038 54.5704C51.9032 54.5698 51.9025 54.5691 51.9019 54.5685C51.9012 54.5665 51.9006 54.5645 51.8999 54.5626C51.8856 54.5345 51.8699 54.5072 51.853 54.4806C51.8511 54.4773 51.8491 54.474 51.8472 54.4708C51.8459 54.4682 51.8446 54.4656 51.8433 54.463L51.812 54.4161L37.896 32.547C37.8127 32.3767 37.6828 32.2336 37.5213 32.1344C37.3598 32.0351 37.1734 31.9838 36.9839 31.9864V31.9864ZM35.9995 36.4356V48.3399L25.5835 52.8028L35.9995 36.4356ZM37.9995 36.4356L48.4155 52.8028L37.9995 48.3399V36.4356ZM35.9995 50.5157V61.2755L25.2417 55.129L35.9995 50.5157ZM37.9995 50.5157L48.7573 55.129L37.9995 61.2755V50.5157ZM51.0073 58.9981C50.8306 58.9971 50.6567 59.0429 50.5034 59.131L36.9995 66.8478L23.4956 59.131C23.3502 59.0482 23.1864 59.0032 23.0191 59.0001C22.8324 58.9965 22.6484 59.0451 22.4879 59.1407C22.3275 59.2362 22.197 59.3747 22.1112 59.5406C22.0254 59.7065 21.9878 59.893 22.0026 60.0792C22.0174 60.2653 22.084 60.4436 22.1948 60.5938L36.1284 79.504C36.2155 79.658 36.3418 79.7862 36.4946 79.8755C36.6473 79.9647 36.8211 80.0118 36.998 80.012C37.1749 80.0122 37.3487 79.9655 37.5017 79.8766C37.6546 79.7877 37.7813 79.6598 37.8687 79.506L51.8042 60.5938C51.9142 60.4455 51.981 60.2695 51.9971 60.0855C52.0132 59.9015 51.9781 59.7166 51.8956 59.5514C51.813 59.3862 51.6864 59.247 51.5296 59.1493C51.3728 59.0517 51.192 58.9993 51.0073 58.9981ZM26.6128 63.2169L35.9995 68.5821V75.9571L26.6128 63.2169ZM47.3862 63.2169L37.9995 75.9571V68.5821L47.3862 63.2169Z" fill="#CCCCCC"/>
<path d="M496 65.5602V69.0502L491.11 76.0702C490.92 76.3502 490.62 76.5402 490.26 76.5002C489.92 76.4902 489.61 76.3102 489.44 76.0102L486.67 71.4202L484.56 72.8302C484.31 73.0002 484 73.0402 483.72 72.9602C483.43 72.8702 483.2 72.6702 483.08 72.3902L481.12 67.8102L478.95 74.3202C478.85 74.6102 478.62 74.8402 478.33 74.9502L475.76 75.8302L472.85 80.5302C472.67 80.8202 472.35 81.0002 472 81.0002C471.99 81.0002 471.99 81.0002 471.98 81.0002C471.63 80.9902 471.31 80.8002 471.13 80.5002L466.38 72.1702L463.91 77.4302C463.78 77.6902 463.55 77.8802 463.27 77.9602C462.99 78.0402 462.69 78.0002 462.45 77.8302L459.97 76.2002L454.56 79.8302C454.31 80.0002 454.01 80.0402 453.73 79.9602L448 78.3202V76.2502L453.83 77.9102L459.41 74.1702C459.74 73.9502 460.18 73.9402 460.51 74.1702L462.59 75.5302L465.39 69.5702C465.55 69.2402 465.88 69.0202 466.25 69.0002C466.62 68.9502 466.98 69.1802 467.16 69.5002L472.04 78.0402L474.25 74.4702C474.37 74.2802 474.56 74.1302 474.77 74.0502L477.21 73.2202L480.05 64.6802C480.18 64.2902 480.54 64.0202 480.96 64.0002C481.39 63.9802 481.75 64.2202 481.92 64.6102L484.45 70.5002L486.44 69.1702C486.66 69.0202 486.94 68.9602 487.21 69.0202C487.48 69.0802 487.71 69.2502 487.85 69.4902L490.36 73.6602L496 65.5602Z" fill="#CCCCCC"/>
<path d="M481 68C482.657 68 484 66.6569 484 65C484 63.3431 482.657 62 481 62C479.343 62 478 63.3431 478 65C478 66.6569 479.343 68 481 68Z" fill="url(#paint0_linear)"/>
<g clip-path="url(#clip1)">
<path d="M438.99 336.048C438.8 336.199 438.652 336.388 438.543 336.613C438.436 336.837 438.381 337.101 438.381 337.406C438.381 337.883 438.534 338.252 438.837 338.514C439.141 338.773 439.641 338.985 440.336 339.143V335.603C440.09 335.603 439.849 335.639 439.618 335.711C439.388 335.784 439.177 335.895 438.99 336.048ZM443.431 343.367C443.076 343.086 442.473 342.829 441.619 342.598V346.766C441.879 346.739 442.152 346.677 442.431 346.583C442.715 346.488 442.967 346.355 443.194 346.181C443.417 346.008 443.6 345.793 443.747 345.541C443.891 345.287 443.964 344.986 443.964 344.639C443.964 344.075 443.785 343.65 443.431 343.367ZM447.806 326.891L447.809 326.894C447.799 326.883 447.793 326.872 447.783 326.862C447.367 326.283 446.952 325.726 446.546 325.197C446.01 324.301 445.727 323.21 446.383 321.637V321.636L448.645 316.223L445.094 314.604L445.458 313H436.536L437.004 315.044L433.351 316.223L435.611 321.636V321.637C436.73 324.313 435.129 325.591 434.188 326.894C429.535 333.329 424.325 342.542 424.325 348.096C424.325 357.306 431.478 356.999 440.999 356.999C450.518 356.999 457.672 357.306 457.672 348.096C457.672 342.541 452.458 333.328 447.806 326.891ZM438.758 322.372H443.311V325.245H438.758V322.372V322.372ZM446.809 345.974C446.65 346.461 446.364 346.934 445.951 347.397C445.539 347.861 444.984 348.274 444.288 348.636C443.593 348.998 442.704 349.215 441.619 349.287V351.134H440.336V349.287C438.714 349.172 437.446 348.672 436.535 347.788C435.621 346.904 435.093 345.609 434.948 343.899H438.011C437.998 344.727 438.215 345.377 438.664 345.855C439.112 346.333 439.671 346.637 440.336 346.766V342.228C440.263 342.198 440.166 342.166 440.042 342.13C439.919 342.093 439.784 342.061 439.641 342.032C439.106 341.887 438.576 341.716 438.057 341.522C437.534 341.327 437.066 341.065 436.654 340.74C436.241 340.414 435.912 340.007 435.666 339.524C435.419 339.038 435.296 338.434 435.296 337.71C435.296 336.971 435.437 336.319 435.721 335.755C436.004 335.19 436.374 334.716 436.839 334.331C437.303 333.948 437.839 333.652 438.446 333.441C439.055 333.231 439.684 333.105 440.336 333.061V331.388H441.619V333.061C442.269 333.134 442.881 333.275 443.454 333.485C444.024 333.696 444.527 333.984 444.964 334.354C445.396 334.722 445.753 335.183 446.026 335.732C446.302 336.285 446.461 336.936 446.504 337.687H443.42C443.405 337.109 443.223 336.616 442.877 336.211C442.528 335.805 442.109 335.602 441.619 335.602V339.447C441.791 339.492 441.968 339.535 442.152 339.578C442.33 339.621 442.523 339.671 442.726 339.73C443.798 340.019 444.623 340.378 445.201 340.805C445.779 341.232 446.208 341.677 446.484 342.141C446.758 342.606 446.921 343.069 446.973 343.531C447.023 343.995 447.049 344.407 447.049 344.77C447.049 345.087 446.968 345.49 446.809 345.974Z" fill="#CCCCCC"/>
</g>
<g clip-path="url(#clip2)">
<path d="M362.582 365.994L349.243 354.679L349.32 352.436C355.58 352.729 360.447 352.279 361.579 348.265L348.24 348.213L350.399 345.761L361.04 345.865C359.418 343.581 354.959 343.299 348.009 343.467L350.399 341.068L372.991 341.045L370.755 343.414H364.51C365.651 344.231 366.487 345.171 366.514 345.969L372.991 345.917L370.755 348.264L366.437 348.316C365.763 351.816 361.02 353.889 355.026 354.365L368.454 365.991L362.582 365.993V365.993L362.582 365.994Z" fill="#CCCCCC" stroke="#CCCCCC" stroke-width="0.099084"/>
</g>
<path d="M409.398 32.1121C409.207 32.1121 409.061 32.0739 408.962 31.9975C408.862 31.9211 408.813 31.8089 408.813 31.6609V31.227H409.77V31.3956C409.77 31.4552 409.779 31.4985 409.797 31.5254C409.816 31.5523 409.845 31.5658 409.885 31.5658C409.927 31.5658 409.957 31.5513 409.975 31.5225C409.994 31.4937 410.003 31.4461 410.003 31.3798C410.003 31.3048 409.995 31.2524 409.977 31.2227C409.959 31.1929 409.915 31.1635 409.843 31.1347L409.195 30.8723C409.046 30.8118 408.945 30.7464 408.892 30.6763C408.839 30.6061 408.813 30.51 408.813 30.388V30.1314C408.813 29.9843 408.862 29.8728 408.962 29.7969C409.061 29.721 409.207 29.683 409.398 29.683H410.364C410.555 29.683 410.7 29.721 410.799 29.7969C410.898 29.8728 410.948 29.9843 410.948 30.1314V30.4154H409.998V30.3851C409.998 30.3322 409.987 30.2921 409.967 30.2647C409.946 30.2373 409.916 30.2236 409.877 30.2236C409.843 30.2236 409.816 30.2342 409.795 30.2553C409.774 30.2765 409.764 30.3048 409.764 30.3404C409.764 30.375 409.773 30.4031 409.792 30.4247C409.811 30.4464 409.858 30.4725 409.933 30.5033L410.688 30.8219C410.784 30.8632 410.852 30.9211 410.89 30.9956C410.928 31.0701 410.948 31.1828 410.948 31.3336V31.5989C410.948 31.7748 410.9 31.9043 410.806 31.9874C410.711 32.0706 410.564 32.1121 410.364 32.1121L409.398 32.1121ZM408.852 28.4044V26.007H409.77V26.9758L410.071 26.007H411.024L410.664 27.1199L411.046 28.4044H410.103L409.77 27.3087V28.4044H408.852ZM410.951 23.7365V24.2151C410.951 24.3987 410.905 24.5306 410.813 24.6108C410.721 24.6911 410.57 24.7312 410.358 24.7312H409.381C409.184 24.7312 409.04 24.6896 408.948 24.6065C408.857 24.5234 408.811 24.3929 408.811 24.2151V22.8744C408.811 22.6649 408.854 22.5172 408.939 22.4311C409.024 22.3451 409.171 22.3021 409.381 22.3021H410.358C410.581 22.3021 410.736 22.3444 410.822 22.429C410.908 22.5136 410.951 22.662 410.951 22.8744V23.1901H410.001V23.0157C410.001 22.9532 409.991 22.9088 409.972 22.8824C409.954 22.8559 409.923 22.8427 409.879 22.8427C409.838 22.8427 409.808 22.8564 409.789 22.8838C409.771 22.9112 409.761 22.9552 409.761 23.0157V24.0147C409.761 24.0753 409.771 24.1192 409.789 24.1466C409.808 24.174 409.838 24.1877 409.879 24.1877C409.921 24.1877 409.951 24.1738 409.971 24.1459C409.991 24.118 410.001 24.0743 410.001 24.0147V23.7365L410.951 23.7365ZM409.761 19.3252V20.3242C409.761 20.3848 409.771 20.4282 409.789 20.4547C409.808 20.4811 409.838 20.4943 409.879 20.4943C409.923 20.4943 409.954 20.4813 409.972 20.4554C409.991 20.4294 410.001 20.3857 410.001 20.3242V19.3252C410.001 19.2656 409.991 19.2219 409.971 19.194C409.951 19.1661 409.921 19.1522 409.879 19.1522C409.838 19.1522 409.808 19.1659 409.789 19.1933C409.771 19.2207 409.761 19.2647 409.761 19.3252L409.761 19.3252ZM409.381 21.0407C409.171 21.0407 409.024 20.9972 408.939 20.9102C408.854 20.8232 408.811 20.675 408.811 20.4655V19.1219C408.811 18.9451 408.857 18.8158 408.948 18.7341C409.038 18.6525 409.183 18.6116 409.381 18.6116H410.358C410.571 18.6116 410.724 18.6512 410.814 18.7305C410.905 18.8098 410.951 18.9403 410.951 19.1219V20.4655C410.951 20.6788 410.907 20.828 410.821 20.9131C410.734 20.9981 410.58 21.0407 410.358 21.0407L409.381 21.0407ZM409.414 17.3329V15.4819H408.932V14.9356H410.825V15.4819H410.344V17.3329H409.414ZM409.398 13.6597C409.207 13.6597 409.061 13.6215 408.962 13.5451C408.862 13.4687 408.813 13.3565 408.813 13.2085V12.7746H409.77V12.9433C409.77 13.0028 409.779 13.0461 409.797 13.073C409.816 13.0999 409.845 13.1134 409.885 13.1134C409.927 13.1134 409.957 13.099 409.975 13.0701C409.994 13.0413 410.003 12.9937 410.003 12.9274C410.003 12.8524 409.995 12.8001 409.977 12.7703C409.959 12.7405 409.915 12.7112 409.843 12.6823L409.195 12.42C409.046 12.3594 408.945 12.2941 408.892 12.2239C408.839 12.1538 408.813 12.0576 408.813 11.9356V11.679C408.813 11.5319 408.862 11.4205 408.962 11.3445C409.061 11.2686 409.207 11.2307 409.398 11.2307H410.364C410.555 11.2307 410.7 11.2686 410.799 11.3445C410.898 11.4205 410.948 11.532 410.948 11.679V11.963H409.998V11.9327C409.998 11.8799 409.987 11.8397 409.967 11.8123C409.946 11.7849 409.916 11.7713 409.877 11.7713C409.843 11.7713 409.816 11.7818 409.795 11.803C409.775 11.8241 409.764 11.8525 409.764 11.888C409.764 11.9226 409.774 11.9507 409.792 11.9724C409.811 11.994 409.858 12.0202 409.933 12.0509L410.688 12.3695C410.784 12.4108 410.852 12.4687 410.89 12.5432C410.928 12.6177 410.948 12.7304 410.948 12.8813V13.1465C410.948 13.3224 410.9 13.4519 410.806 13.535C410.711 13.6182 410.564 13.6597 410.364 13.6597L409.398 13.6597ZM406.189 7.73828V29.8811H402.499L409.88 37.2621L417.261 29.8811H413.57V7.73828H406.189V7.73828Z" fill="url(#paint1_linear)"/>
<path fill-rule="evenodd" clip-rule="evenodd" d="M391.429 37.2616V15.1187H387.738L395.119 7.73779L402.5 15.1187H398.81V37.2616H391.429ZM394.636 15.2826C394.445 15.2826 394.3 15.2444 394.2 15.168C394.101 15.0916 394.051 14.9794 394.051 14.8314V14.3975H395.008V14.5661C395.008 14.6257 395.017 14.669 395.036 14.6959C395.054 14.7228 395.083 14.7362 395.124 14.7362C395.165 14.7362 395.195 14.7218 395.214 14.693C395.232 14.6642 395.242 14.6166 395.242 14.5503C395.242 14.4753 395.233 14.4229 395.215 14.3931C395.197 14.3634 395.153 14.334 395.082 14.3052L394.433 14.0428C394.284 13.9823 394.183 13.9169 394.13 13.8468C394.077 13.7766 394.051 13.6805 394.051 13.5585V13.3019C394.051 13.1548 394.101 13.0433 394.2 12.9674C394.3 12.8915 394.445 12.8535 394.636 12.8535H395.602C395.793 12.8535 395.939 12.8915 396.038 12.9674C396.137 13.0433 396.186 13.1548 396.186 13.3019V13.5859H395.236V13.5556C395.236 13.5027 395.226 13.4626 395.205 13.4352C395.184 13.4078 395.154 13.3941 395.115 13.3941C395.081 13.3941 395.054 13.4047 395.033 13.4258C395.013 13.447 395.002 13.4753 395.002 13.5109C395.002 13.5455 395.012 13.5736 395.031 13.5952C395.049 13.6169 395.096 13.643 395.171 13.6738L395.927 13.9924C396.023 14.0337 396.09 14.0916 396.128 14.1661C396.167 14.2406 396.186 14.3533 396.186 14.5042V14.7694C396.186 14.9453 396.139 15.0748 396.044 15.1579C395.949 15.241 395.802 15.2826 395.602 15.2826L394.636 15.2826ZM394.652 18.9558V17.1048H394.171V16.5584H396.064V17.1048H395.582V18.9558H394.652ZM394.619 22.6636C394.409 22.6636 394.262 22.6201 394.177 22.5331C394.092 22.4461 394.05 22.2979 394.05 22.0884V20.7448C394.05 20.568 394.095 20.4387 394.186 20.357C394.277 20.2753 394.421 20.2345 394.619 20.2345H395.596C395.81 20.2345 395.962 20.2741 396.053 20.3534C396.143 20.4327 396.189 20.5632 396.189 20.7448V22.0883C396.189 22.3017 396.146 22.4509 396.059 22.536C395.973 22.621 395.818 22.6635 395.596 22.6635L394.619 22.6636ZM395 20.9481V21.9471C395 22.0076 395.009 22.0511 395.028 22.0776C395.046 22.104 395.076 22.1172 395.118 22.1172C395.161 22.1172 395.192 22.1042 395.211 22.0783C395.23 22.0523 395.239 22.0086 395.239 21.9471V20.9481C395.239 20.8885 395.229 20.8448 395.209 20.8169C395.19 20.789 395.159 20.7751 395.118 20.7751C395.076 20.7751 395.046 20.7888 395.028 20.8162C395.009 20.8436 395 20.8875 395 20.9481L395 20.9481ZM396.189 25.3594V25.838C396.189 26.0215 396.143 26.1535 396.051 26.2337C395.959 26.3139 395.808 26.3541 395.596 26.3541H394.619C394.422 26.3541 394.278 26.3125 394.187 26.2294C394.095 26.1462 394.05 26.0158 394.05 25.838V24.4973C394.05 24.2878 394.092 24.14 394.177 24.054C394.262 23.968 394.409 23.925 394.619 23.925H395.596C395.819 23.925 395.974 23.9673 396.06 24.0519C396.146 24.1364 396.189 24.2849 396.189 24.4973V24.813H395.239V24.6386C395.239 24.5761 395.229 24.5317 395.211 24.5052C395.192 24.4788 395.161 24.4656 395.118 24.4656C395.076 24.4656 395.046 24.4793 395.028 24.5067C395.009 24.5341 395 24.578 395 24.6386V25.6376C395 25.6981 395.009 25.7421 395.028 25.7695C395.046 25.7969 395.076 25.8106 395.118 25.8106C395.159 25.8106 395.19 25.7967 395.209 25.7688C395.229 25.7409 395.239 25.6972 395.239 25.6376V25.3594L396.189 25.3594ZM394.09 30.0272V27.6299H395.008V28.5987L395.309 27.6299H396.262L395.902 28.7428L396.284 30.0272H395.341L395.008 28.9316V30.0272H394.09ZM394.636 33.735C394.445 33.735 394.3 33.6968 394.2 33.6204C394.101 33.544 394.051 33.4318 394.051 33.2838V32.8499H395.008V33.0185C395.008 33.0781 395.017 33.1214 395.036 33.1483C395.054 33.1752 395.083 33.1886 395.124 33.1886C395.165 33.1886 395.195 33.1742 395.214 33.1454C395.232 33.1165 395.242 33.069 395.242 33.0027C395.242 32.9277 395.233 32.8753 395.215 32.8455C395.197 32.8157 395.153 32.7864 395.082 32.7576L394.433 32.4952C394.284 32.4347 394.183 32.3693 394.13 32.2992C394.077 32.229 394.051 32.1329 394.051 32.0109V31.7542C394.051 31.6072 394.101 31.4957 394.2 31.4198C394.3 31.3439 394.445 31.3059 394.636 31.3059H395.602C395.793 31.3059 395.938 31.3439 396.037 31.4198C396.136 31.4957 396.186 31.6072 396.186 31.7542V32.0382H395.236V32.008C395.236 31.9551 395.226 31.915 395.205 31.8876C395.184 31.8602 395.154 31.8465 395.115 31.8465C395.081 31.8465 395.054 31.8571 395.033 31.8782C395.013 31.8994 395.002 31.9277 395.002 31.9633C395.002 31.9979 395.012 32.026 395.031 32.0476C395.049 32.0692 395.096 32.0954 395.171 32.1262L395.926 32.4448C396.023 32.4861 396.09 32.544 396.128 32.6185C396.167 32.693 396.186 32.8056 396.186 32.9565V33.2218C396.186 33.3977 396.139 33.5272 396.044 33.6103C395.949 33.6934 395.802 33.735 395.602 33.735L394.636 33.735Z" fill="url(#paint2_linear)"/>
</g>
<defs>
<linearGradient id="paint0_linear" x1="481" y1="73.22" x2="481" y2="61.917" gradientUnits="userSpaceOnUse">
<stop stop-color="#CCCCCC"/>
</linearGradient>
<linearGradient id="paint1_linear" x1="412.095" y1="37.2611" x2="412.095" y2="2.57058" gradientUnits="userSpaceOnUse">
<stop stop-color="#CCCCCC"/>
</linearGradient>
<linearGradient id="paint2_linear" x1="395.119" y1="7.88467" x2="395.119" y2="44.7894" gradientUnits="userSpaceOnUse">
<stop stop-color="#CCCCCC"/>
</linearGradient>
<clipPath id="clip0">
<rect width="504" height="458" fill="white"/>
</clipPath>
<clipPath id="clip1">
<rect width="44" height="44" fill="white" transform="translate(419 313)"/>
</clipPath>
<clipPath id="clip2">
<rect width="25" height="25" fill="white" transform="translate(348 341)"/>
</clipPath>
</defs>
</svg>
